<?xml version="1.0" encoding="utf-8"?>
<svg version="1.1" xmlns="http://www.w3.org/2000/svg" viewBox="0 0 3300 2200">
  <style>.monochrome-0 {-sfsymbols-motion-group:0;-sfsymbols-layer-tags:-1163c78e12ee128f dollarsign}

.multicolor-0:tintColor {-sfsymbols-motion-group:0;-sfsymbols-layer-tags:-1163c78e12ee128f dollarsign}

.hierarchical-0:primary {-sfsymbols-motion-group:0;-sfsymbols-layer-tags:-1163c78e12ee128f dollarsign}

.SFSymbolsPreviewWireframe {fill:none;opacity:1.0;stroke:black;stroke-width:0.5}
</style>
  <g id="Notes">
    <rect height="2200" id="artboard" style="fill:white;opacity:1" width="3300" x="0" y="0"/>
    <line style="fill:none;stroke:black;opacity:1;stroke-width:0.5;" x1="263" x2="3036" y1="292" y2="292"/>
    <text style="stroke: none; fill: black; font-family: sans-serif; font-weight: bold; white-space: pre;" transform="matrix(1 0 0 1 263 322)">Weight/Scale Variations</text>
    <text style="stroke: none; fill: black; font-family: sans-serif; text-anchor: middle; white-space: pre;" transform="matrix(1 0 0 1 559.711 322)">Ultralight</text>
    <text style="stroke: none; fill: black; font-family: sans-serif; text-anchor: middle; white-space: pre;" transform="matrix(1 0 0 1 856.422 322)">Thin</text>
    <text style="stroke: none; fill: black; font-family: sans-serif; text-anchor: middle; white-space: pre;" transform="matrix(1 0 0 1 1153.13 322)">Light</text>
    <text style="stroke: none; fill: black; font-family: sans-serif; text-anchor: middle; white-space: pre;" transform="matrix(1 0 0 1 1449.84 322)">Regular</text>
    <text style="stroke: none; fill: black; font-family: sans-serif; text-anchor: middle; white-space: pre;" transform="matrix(1 0 0 1 1746.56 322)">Medium</text>
    <text style="stroke: none; fill: black; font-family: sans-serif; text-anchor: middle; white-space: pre;" transform="matrix(1 0 0 1 2043.27 322)">Semibold</text>
    <text style="stroke: none; fill: black; font-family: sans-serif; text-anchor: middle; white-space: pre;" transform="matrix(1 0 0 1 2339.98 322)">Bold</text>
    <text style="stroke: none; fill: black; font-family: sans-serif; text-anchor: middle; white-space: pre;" transform="matrix(1 0 0 1 2636.69 322)">Heavy</text>
    <text style="stroke: none; fill: black; font-family: sans-serif; text-anchor: middle; white-space: pre;" transform="matrix(1 0 0 1 2933.4 322)">Black</text>
    <line style="fill:none;stroke:black;opacity:1;stroke-width:0.5;" x1="263" x2="3036" y1="1903" y2="1903"/>
    <g transform="matrix(0.2 0 0 0.2 263 1933)">
      <path d="m46.2402 4.15039c21.7773 0 39.4531-17.627 39.4531-39.4043s-17.6758-39.4043-39.4531-39.4043c-21.7285 0-39.4043 17.627-39.4043 39.4043s17.6758 39.4043 39.4043 39.4043Zm0-7.42188c-17.6758 0-31.9336-14.3066-31.9336-31.9824s14.2578-31.9824 31.9336-31.9824 31.9824 14.3066 31.9824 31.9824-14.3066 31.9824-31.9824 31.9824Zm-17.9688-31.9824c0 2.14844 1.51367 3.61328 3.75977 3.61328h10.498v10.5957c0 2.19727 1.46484 3.71094 3.61328 3.71094 2.24609 0 3.71094-1.51367 3.71094-3.71094v-10.5957h10.5957c2.19727 0 3.71094-1.46484 3.71094-3.61328 0-2.19727-1.51367-3.71094-3.71094-3.71094h-10.5957v-10.5469c0-2.24609-1.46484-3.75977-3.71094-3.75977-2.14844 0-3.61328 1.51367-3.61328 3.75977v10.5469h-10.498c-2.24609 0-3.75977 1.51367-3.75977 3.71094Z"/>
    </g>
    <g transform="matrix(0.2 0 0 0.2 281.506 1933)">
      <path d="m58.5449 14.5508c27.4902 0 49.8047-22.3145 49.8047-49.8047s-22.3145-49.8047-49.8047-49.8047-49.8047 22.3145-49.8047 49.8047 22.3145 49.8047 49.8047 49.8047Zm0-8.30078c-22.9492 0-41.5039-18.5547-41.5039-41.5039s18.5547-41.5039 41.5039-41.5039 41.5039 18.5547 41.5039 41.5039-18.5547 41.5039-41.5039 41.5039Zm-22.6562-41.5039c0 2.39258 1.66016 4.00391 4.15039 4.00391h14.3555v14.4043c0 2.44141 1.66016 4.15039 4.05273 4.15039 2.44141 0 4.15039-1.66016 4.15039-4.15039v-14.4043h14.4043c2.44141 0 4.15039-1.61133 4.15039-4.00391 0-2.44141-1.70898-4.15039-4.15039-4.15039h-14.4043v-14.3555c0-2.49023-1.70898-4.19922-4.15039-4.19922-2.39258 0-4.05273 1.70898-4.05273 4.19922v14.3555h-14.3555c-2.49023 0-4.15039 1.70898-4.15039 4.15039Z"/>
    </g>
    <g transform="matrix(0.2 0 0 0.2 304.924 1933)">
      <path d="m74.8535 28.3203c35.1074 0 63.623-28.4668 63.623-63.5742s-28.5156-63.623-63.623-63.623-63.5742 28.5156-63.5742 63.623 28.4668 63.5742 63.5742 63.5742Zm0-9.08203c-30.127 0-54.4922-24.3652-54.4922-54.4922s24.3652-54.4922 54.4922-54.4922 54.4922 24.3652 54.4922 54.4922-24.3652 54.4922-54.4922 54.4922Zm-28.8574-54.4922c0 2.58789 1.85547 4.39453 4.58984 4.39453h19.7266v19.7754c0 2.68555 1.85547 4.58984 4.44336 4.58984 2.68555 0 4.54102-1.85547 4.54102-4.58984v-19.7754h19.7754c2.68555 0 4.58984-1.80664 4.58984-4.39453 0-2.73438-1.85547-4.58984-4.58984-4.58984h-19.7754v-19.7266c0-2.73438-1.85547-4.63867-4.54102-4.63867-2.58789 0-4.44336 1.9043-4.44336 4.63867v19.7266h-19.7266c-2.73438 0-4.58984 1.85547-4.58984 4.58984Z"/>
    </g>
    <text style="stroke: none; fill: black; font-family: sans-serif; font-weight: bold; white-space: pre;" transform="matrix(1 0 0 1 263 1953)">Design Variations</text>
    <text style="stroke: none; fill: black; font-family: sans-serif; white-space: pre;" transform="matrix(1 0 0 1 263 1971)">Symbols are supported in up to nine weights and three scales.</text>
    <text style="stroke: none; fill: black; font-family: sans-serif; white-space: pre;" transform="matrix(1 0 0 1 263 1989)">For optimal layout with text and other symbols, vertically align</text>
    <text style="stroke: none; fill: black; font-family: sans-serif; white-space: pre;" transform="matrix(1 0 0 1 263 2007)">symbols with the adjacent text.</text>
    <line style="fill:none;stroke:#00AEEF;stroke-width:0.5;opacity:1.0;" x1="776" x2="776" y1="1919" y2="1933"/>
    <g transform="matrix(0.2 0 0 0.2 776 1933)">
      <path d="m16.5527 0.78125c2.58789 0 3.85742-0.976562 4.78516-3.71094l6.29883-17.2363h28.8086l6.29883 17.2363c0.927734 2.73438 2.19727 3.71094 4.73633 3.71094 2.58789 0 4.24805-1.5625 4.24805-4.00391 0-0.830078-0.146484-1.61133-0.537109-2.63672l-22.9004-60.9863c-1.12305-2.97852-3.125-4.49219-6.25-4.49219-3.02734 0-5.07812 1.46484-6.15234 4.44336l-22.9004 61.084c-0.390625 1.02539-0.537109 1.80664-0.537109 2.63672 0 2.44141 1.5625 3.95508 4.10156 3.95508Zm13.4766-28.3691 11.8652-32.8613h0.244141l11.8652 32.8613Z"/>
    </g>
    <line style="fill:none;stroke:#00AEEF;stroke-width:0.5;opacity:1.0;" x1="792.836" x2="792.836" y1="1919" y2="1933"/>
    <text style="stroke: none; fill: black; font-family: sans-serif; font-weight: bold; white-space: pre;" transform="matrix(1 0 0 1 776 1953)">Margins</text>
    <text style="stroke: none; fill: black; font-family: sans-serif; white-space: pre;" transform="matrix(1 0 0 1 776 1971)">Leading and trailing margins on the left and right side of each symbol</text>
    <text style="stroke: none; fill: black; font-family: sans-serif; white-space: pre;" transform="matrix(1 0 0 1 776 1989)">can be adjusted by modifying the x-location of the margin guidelines.</text>
    <text style="stroke: none; fill: black; font-family: sans-serif; white-space: pre;" transform="matrix(1 0 0 1 776 2007)">Modifications are automatically applied proportionally to all</text>
    <text style="stroke: none; fill: black; font-family: sans-serif; white-space: pre;" transform="matrix(1 0 0 1 776 2025)">scales and weights.</text>
    <g transform="matrix(0.2 0 0 0.2 1289 1933)">
      <path d="m14.209 9.32617 8.49609 8.54492c4.29688 4.3457 9.22852 4.05273 13.8672-1.07422l53.4668-58.9355-4.83398-4.88281-53.0762 58.3984c-1.75781 2.00195-3.41797 2.49023-5.76172 0.146484l-5.85938-5.81055c-2.34375-2.29492-1.80664-4.00391 0.195312-5.81055l57.373-54.0039-4.88281-4.83398-57.959 54.4434c-4.93164 4.58984-5.32227 9.47266-1.02539 13.8184Zm32.0801-90.9668c-2.09961 2.05078-2.24609 4.93164-1.07422 6.88477 1.17188 1.80664 3.4668 2.97852 6.68945 2.14844 7.32422-1.70898 14.9414-2.00195 22.0703 2.68555l-2.92969 7.27539c-1.70898 4.15039-0.830078 7.08008 1.85547 9.81445l11.4746 11.5723c2.44141 2.44141 4.49219 2.53906 7.32422 2.05078l5.32227-0.976562 3.32031 3.36914-0.195312 2.7832c-0.195312 2.49023 0.439453 4.39453 2.88086 6.78711l3.80859 3.71094c2.39258 2.39258 5.46875 2.53906 7.8125 0.195312l14.5508-14.5996c2.34375-2.34375 2.24609-5.32227-0.146484-7.71484l-3.85742-3.80859c-2.39258-2.39258-4.24805-3.17383-6.64062-2.97852l-2.88086 0.244141-3.22266-3.17383 1.2207-5.61523c0.634766-2.83203-0.146484-5.0293-3.07617-7.95898l-10.9863-10.9375c-16.6992-16.6016-38.8672-16.2109-53.3203-1.75781Zm7.4707 1.85547c12.1582-8.88672 28.6133-7.37305 39.7461 3.75977l12.1582 12.0605c1.17188 1.17188 1.36719 2.09961 1.02539 3.80859l-1.61133 7.42188 7.51953 7.42188 4.93164-0.292969c1.26953-0.0488281 1.66016 0.0488281 2.63672 1.02539l2.88086 2.88086-12.207 12.207-2.88086-2.88086c-0.976562-0.976562-1.12305-1.36719-1.07422-2.68555l0.341797-4.88281-7.4707-7.42188-7.61719 1.26953c-1.61133 0.341797-2.34375 0.195312-3.56445-0.976562l-10.0098-10.0098c-1.26953-1.17188-1.41602-2.00195-0.634766-3.85742l4.39453-10.4492c-7.8125-7.27539-17.9688-10.4004-28.125-7.42188-0.78125 0.195312-1.07422-0.439453-0.439453-0.976562Z"/>
    </g>
    <text style="stroke: none; fill: black; font-family: sans-serif; font-weight: bold; white-space: pre;" transform="matrix(1 0 0 1 1289 1953)">Exporting</text>
    <text style="stroke: none; fill: black; font-family: sans-serif; white-space: pre;" transform="matrix(1 0 0 1 1289 1971)">Symbols should be outlined when exporting to ensure the</text>
    <text style="stroke: none; fill: black; font-family: sans-serif; white-space: pre;" transform="matrix(1 0 0 1 1289 1989)">design is preserved when submitting to Xcode.</text>
    <text id="template-version" style="stroke: none; fill: black; font-family: sans-serif; text-anchor: end; white-space: pre;" transform="matrix(1 0 0 1 3036 1933)">Template v.6.0</text>
    <text style="stroke: none; fill: black; font-family: sans-serif; text-anchor: end; white-space: pre;" transform="matrix(1 0 0 1 3036 1951)">Requires Xcode 16 or greater</text>
    <text id="descriptive-name" style="stroke: none; fill: black; font-family: sans-serif; text-anchor: end; white-space: pre;" transform="matrix(1 0 0 1 3036 1969)">Generated from ambito.dolar.2</text>
    <text style="stroke: none; fill: black; font-family: sans-serif; text-anchor: end; white-space: pre;" transform="matrix(1 0 0 1 3036 1987)">Typeset at 100.0 points</text>
    <text style="stroke: none; fill: black; font-family: sans-serif; white-space: pre;" transform="matrix(1 0 0 1 263 726)">Small</text>
    <text style="stroke: none; fill: black; font-family: sans-serif; white-space: pre;" transform="matrix(1 0 0 1 263 1156)">Medium</text>
    <text style="stroke: none; fill: black; font-family: sans-serif; white-space: pre;" transform="matrix(1 0 0 1 263 1586)">Large</text>
  </g>
  <g id="Guides">
    <g id="H-reference" style="fill:#27AAE1;stroke:none;" transform="matrix(1 0 0 1 339 696)">
      <path d="M0.993654 0L3.63775 0L29.3281-67.1323L30.0303-67.1323L30.0303-70.459L28.1226-70.459ZM11.6885-24.4799L46.9815-24.4799L46.2315-26.7285L12.4385-26.7285ZM55.1196 0L57.7637 0L30.6382-70.459L29.4326-70.459L29.4326-67.1323Z"/>
    </g>
    <line id="Baseline-S" style="fill:none;stroke:#27AAE1;opacity:1;stroke-width:0.5;" x1="263" x2="3036" y1="696" y2="696"/>
    <line id="Capline-S" style="fill:none;stroke:#27AAE1;opacity:1;stroke-width:0.5;" x1="263" x2="3036" y1="625.541" y2="625.541"/>
    <g id="H-reference-2" style="fill:#27AAE1;stroke:none;" transform="matrix(1 0 0 1 339 1126)">
      <path d="M0.993654 0L3.63775 0L29.3281-67.1323L30.0303-67.1323L30.0303-70.459L28.1226-70.459ZM11.6885-24.4799L46.9815-24.4799L46.2315-26.7285L12.4385-26.7285ZM55.1196 0L57.7637 0L30.6382-70.459L29.4326-70.459L29.4326-67.1323Z"/>
    </g>
    <line id="Baseline-M" style="fill:none;stroke:#27AAE1;opacity:1;stroke-width:0.5;" x1="263" x2="3036" y1="1126" y2="1126"/>
    <line id="Capline-M" style="fill:none;stroke:#27AAE1;opacity:1;stroke-width:0.5;" x1="263" x2="3036" y1="1055.54" y2="1055.54"/>
    <g id="H-reference-2" style="fill:#27AAE1;stroke:none;" transform="matrix(1 0 0 1 339 1556)">
      <path d="M0.993654 0L3.63775 0L29.3281-67.1323L30.0303-67.1323L30.0303-70.459L28.1226-70.459ZM11.6885-24.4799L46.9815-24.4799L46.2315-26.7285L12.4385-26.7285ZM55.1196 0L57.7637 0L30.6382-70.459L29.4326-70.459L29.4326-67.1323Z"/>
    </g>
    <line id="Baseline-L" style="fill:none;stroke:#27AAE1;opacity:1;stroke-width:0.5;" x1="263" x2="3036" y1="1556" y2="1556"/>
    <line id="Capline-L" style="fill:none;stroke:#27AAE1;opacity:1;stroke-width:0.5;" x1="263" x2="3036" y1="1485.54" y2="1485.54"/>
    <line id="right-margin-Black-S" style="fill:none;stroke:#00AEEF;stroke-width:0.5;opacity:1.0;" x1="2972.34" x2="2972.34" y1="600.785" y2="720.121"/>
    <line id="left-margin-Black-S" style="fill:none;stroke:#00AEEF;stroke-width:0.5;opacity:1.0;" x1="2894.46" x2="2894.46" y1="600.785" y2="720.121"/>
    <line id="right-margin-Regular-S" style="fill:none;stroke:#00AEEF;stroke-width:0.5;opacity:1.0;" x1="1484.02" x2="1484.02" y1="600.785" y2="720.121"/>
    <line id="left-margin-Regular-S" style="fill:none;stroke:#00AEEF;stroke-width:0.5;opacity:1.0;" x1="1415.66" x2="1415.66" y1="600.785" y2="720.121"/>
    <line id="right-margin-Ultralight-S" style="fill:none;stroke:#00AEEF;stroke-width:0.5;opacity:1.0;" x1="593.051" x2="593.051" y1="600.785" y2="720.121"/>
    <line id="left-margin-Ultralight-S" style="fill:none;stroke:#00AEEF;stroke-width:0.5;opacity:1.0;" x1="526.372" x2="526.372" y1="600.785" y2="720.121"/>
  </g>
  <g id="Symbols">
    <g id="Black-S" transform="matrix(1 0 0 1 2894.46 696)">
      <path d="M 38.935 -76.089 C 40.555 -76.089 41.855 -74.681 41.855 -72.946 L 41.855 -63.516 L 50.615 -63.516 C 55.445 -63.516 59.365 -59.286 59.365 -54.088 L 59.365 -50.944 C 59.365 -49.209 58.065 -47.802 56.445 -47.802 C 54.845 -47.802 53.525 -49.209 53.525 -50.944 L 53.525 -54.088 C 53.525 -55.816 52.215 -57.23 50.615 -57.23 L 41.855 -57.232 L 41.855 -38.373 L 50.615 -38.372 C 55.445 -38.372 59.365 -34.142 59.365 -28.943 L 59.365 -16.371 C 59.365 -11.174 55.445 -6.942 50.615 -6.942 L 41.855 -6.942 L 41.855 2.486 C 41.855 4.224 40.555 5.63 38.935 5.63 C 37.325 5.63 36.015 4.224 36.015 2.486 L 36.015 -6.942 L 27.265 -6.942 C 22.435 -6.942 18.515 -11.174 18.515 -16.371 L 18.515 -19.513 C 18.515 -21.25 19.815 -22.657 21.435 -22.657 C 23.035 -22.657 24.355 -21.25 24.355 -19.513 L 24.355 -16.371 C 24.355 -14.642 25.665 -13.228 27.265 -13.228 L 36.015 -13.228 L 36.015 -32.087 L 27.265 -32.087 C 22.435 -32.087 18.515 -36.317 18.515 -41.515 L 18.515 -54.088 C 18.515 -59.286 22.435 -63.516 27.265 -63.516 L 36.015 -63.516 L 36.015 -72.946 C 36.015 -74.681 37.325 -76.089 38.935 -76.089 Z M 41.855 -13.228 L 50.615 -13.228 C 52.215 -13.228 53.525 -14.642 53.525 -16.371 L 53.525 -28.943 C 53.525 -30.671 52.215 -32.087 50.615 -32.087 L 41.855 -32.087 L 41.855 -13.228 Z M 36.015 -38.373 L 36.015 -57.232 L 27.265 -57.23 C 25.665 -57.23 24.355 -55.816 24.355 -54.088 L 24.355 -41.515 C 24.355 -39.787 25.665 -38.372 27.265 -38.372 L 36.015 -38.373 Z" id="path-1" style="stroke-width: 0.5px;" class="monochrome-0 multicolor-0:tintColor hierarchical-0:primary SFSymbolsPreviewWireframe"/>
    </g>
    <g id="Regular-S" transform="matrix(1 0 0 1 1415.66 696)">
      <path d="M 34.175 -76.113 C 35.795 -76.113 37.095 -74.705 37.095 -72.97 L 37.095 -63.54 L 45.855 -63.54 C 50.685 -63.54 54.605 -59.31 54.605 -54.112 L 54.605 -50.968 C 54.605 -49.233 53.305 -47.826 51.685 -47.826 C 50.085 -47.826 48.765 -49.233 48.765 -50.968 L 48.765 -54.112 C 48.765 -55.84 47.455 -57.254 45.855 -57.254 L 37.095 -57.256 L 37.095 -38.397 L 45.855 -38.396 C 50.685 -38.396 54.605 -34.166 54.605 -28.967 L 54.605 -16.395 C 54.605 -11.198 50.685 -6.966 45.855 -6.966 L 37.095 -6.966 L 37.095 2.462 C 37.095 4.2 35.795 5.606 34.175 5.606 C 32.565 5.606 31.255 4.2 31.255 2.462 L 31.255 -6.966 L 22.505 -6.966 C 17.675 -6.966 13.755 -11.198 13.755 -16.395 L 13.755 -19.537 C 13.755 -21.274 15.055 -22.681 16.675 -22.681 C 18.275 -22.681 19.595 -21.274 19.595 -19.537 L 19.595 -16.395 C 19.595 -14.666 20.905 -13.252 22.505 -13.252 L 31.255 -13.252 L 31.255 -32.111 L 22.505 -32.111 C 17.675 -32.111 13.755 -36.341 13.755 -41.539 L 13.755 -54.112 C 13.755 -59.31 17.675 -63.54 22.505 -63.54 L 31.255 -63.54 L 31.255 -72.97 C 31.255 -74.705 32.565 -76.113 34.175 -76.113 Z M 37.095 -13.252 L 45.855 -13.252 C 47.455 -13.252 48.765 -14.666 48.765 -16.395 L 48.765 -28.967 C 48.765 -30.695 47.455 -32.111 45.855 -32.111 L 37.095 -32.111 L 37.095 -13.252 Z M 31.255 -38.397 L 31.255 -57.256 L 22.505 -57.254 C 20.905 -57.254 19.595 -55.84 19.595 -54.112 L 19.595 -41.539 C 19.595 -39.811 20.905 -38.396 22.505 -38.396 L 31.255 -38.397 Z" id="svg-1" style="stroke-width: 0.5px;" class="monochrome-0 multicolor-0:tintColor hierarchical-0:primary SFSymbolsPreviewWireframe"/>
    </g>
    <g id="Ultralight-S" transform="matrix(1 0 0 1 526.372 696)">
      <path d="M 33.335 -76.113 C 34.953 -76.113 36.254 -74.705 36.254 -72.97 L 36.254 -63.54 L 45.011 -63.54 C 49.842 -63.54 53.768 -59.31 53.768 -54.112 L 53.768 -50.968 C 53.768 -49.233 52.465 -47.826 50.847 -47.826 C 49.241 -47.826 47.929 -49.233 47.929 -50.968 L 47.929 -54.112 C 47.929 -55.84 46.617 -57.254 45.011 -57.254 L 36.254 -57.256 L 36.254 -38.397 L 45.011 -38.396 C 49.842 -38.396 53.768 -34.166 53.768 -28.967 L 53.768 -16.395 C 53.768 -11.198 49.842 -6.966 45.011 -6.966 L 36.254 -6.966 L 36.254 2.462 C 36.254 4.2 34.953 5.606 33.335 5.606 C 31.727 5.606 30.415 4.2 30.415 2.462 L 30.415 -6.966 L 21.669 -6.966 C 16.837 -6.966 12.912 -11.198 12.912 -16.395 L 12.912 -19.537 C 12.912 -21.274 14.214 -22.681 15.832 -22.681 C 17.439 -22.681 18.75 -21.274 18.75 -19.537 L 18.75 -16.395 C 18.75 -14.666 20.062 -13.252 21.669 -13.252 L 30.415 -13.252 L 30.415 -32.111 L 21.669 -32.111 C 16.837 -32.111 12.912 -36.341 12.912 -41.539 L 12.912 -54.112 C 12.912 -59.31 16.837 -63.54 21.669 -63.54 L 30.415 -63.54 L 30.415 -72.97 C 30.415 -74.705 31.727 -76.113 33.335 -76.113 Z M 36.254 -13.252 L 45.011 -13.252 C 46.617 -13.252 47.929 -14.666 47.929 -16.395 L 47.929 -28.967 C 47.929 -30.695 46.617 -32.111 45.011 -32.111 L 36.254 -32.111 L 36.254 -13.252 Z M 30.415 -38.397 L 30.415 -57.256 L 21.669 -57.254 C 20.062 -57.254 18.75 -55.84 18.75 -54.112 L 18.75 -41.539 C 18.75 -39.811 20.062 -38.396 21.669 -38.396 L 30.415 -38.397 Z" id="" style="" class="monochrome-0 multicolor-0:tintColor hierarchical-0:primary SFSymbolsPreviewWireframe"/>
    </g>
    <title>Shape</title>
  </g>
</svg>